<svg width="267" height="267" viewBox="0 0 267 267" fill="none" xmlns="http://www.w3.org/2000/svg">
<path d="M88.2103 31.9967C88.2103 31.9967 47.7491 52.6092 27.5693 84.3715C7.38943 116.134 8.98609 156.995 33.5074 187.327C58.0286 217.658 104.898 213.674 144.141 232.888C183.385 252.101 226.682 248.144 245.238 207.437C263.795 166.73 235.813 151.517 231.007 104.407C226.201 57.2977 183.732 -11.6845 88.2103 31.9967Z" fill="#FFA500"/>
<path opacity="0.7" d="M88.2103 31.9967C88.2103 31.9967 47.7491 52.6092 27.5693 84.3715C7.38943 116.134 8.98609 156.995 33.5074 187.327C58.0286 217.658 104.898 213.674 144.141 232.888C183.385 252.101 226.682 248.144 245.238 207.437C263.795 166.73 235.813 151.517 231.007 104.407C226.201 57.2977 183.732 -11.6845 88.2103 31.9967Z" fill="white"/>
<path d="M207.326 216.66C207.326 216.66 184.588 176.754 189.837 166.576C195.087 156.398 208.49 174.698 208.49 174.698C208.49 174.698 196.833 137.478 203.246 121.218C209.66 104.958 220.735 121.218 221.317 132.726C221.899 144.233 218.983 163.858 218.983 163.858C218.983 163.858 223.65 123.274 234.726 135.433C245.801 147.592 220.735 188.219 220.735 188.219C220.735 188.219 237.641 178.746 237.054 190.926C236.466 203.107 216.655 213.936 216.655 213.936" fill="#FFA500"/>
<path d="M207.519 209.215C207.519 209.215 186.48 189.585 196.732 180.79C206.985 171.995 212.378 190.264 212.378 190.264C212.378 190.264 201.047 134.092 219.39 132.058C237.733 130.023 224.244 180.785 224.244 180.785C224.244 180.785 239.89 159.131 238.811 176.753C237.733 194.375 214.536 209.242 214.536 209.242" stroke="#263238" stroke-miterlimit="10"/>
<path d="M217.852 205.642L203.637 190.236" stroke="#263238" stroke-miterlimit="10"/>
<path d="M214.893 206.829L218.743 161.797" stroke="#263238" stroke-miterlimit="10"/>
<path d="M214.301 203.567L227.037 186.682" stroke="#263238" stroke-miterlimit="10"/>
<path d="M232.724 200.426H193.395L197.33 246.814H228.788L232.724 200.426Z" fill="#263238"/>
<path d="M82.5837 146.633C77.4702 144.124 72.1845 141.982 66.7666 140.225C58.9595 137.822 49.748 140.022 49.5451 142.622C49.3422 145.223 50.7306 144.032 52.5515 146.852C54.3725 149.671 53.5501 156.261 56.156 162.268C58.762 168.276 66.5637 171.277 66.5637 171.277L82.5837 146.633Z" fill="#FFA500" stroke="#263238" stroke-linecap="round" stroke-linejoin="round"/>
<path opacity="0.3" d="M77.3769 152.442C77.3769 152.442 65.3619 144.832 58.3558 142.226C51.3497 139.62 50.9492 143.428 50.9492 143.428C52.1018 143.851 53.091 144.628 53.7749 145.648C54.4589 146.667 54.8025 147.877 54.7566 149.104C54.7566 153.601 57.0048 162.914 62.4676 164.836C67.9304 166.758 77.3769 152.442 77.3769 152.442Z" fill="black"/>
<path d="M163.109 160.945C166.249 159.752 167.757 156.052 166.476 152.68C165.195 149.308 161.611 147.542 158.471 148.735C155.331 149.928 153.823 153.628 155.104 157C156.385 160.371 159.969 162.138 163.109 160.945Z" fill="#FFA500" stroke="#263238" stroke-linecap="round" stroke-linejoin="round"/>
<path d="M77.0195 224.719L83.7586 244.936C83.9414 245.484 84.292 245.96 84.7607 246.298C85.2294 246.635 85.7924 246.816 86.3699 246.816H96.8736C97.411 246.816 97.9368 246.66 98.3858 246.364C98.8348 246.069 99.1872 245.649 99.3995 245.155L104.099 234.251" fill="#FFA500"/>
<path opacity="0.3" d="M80.4004 224.719L85.9754 244.936C86.0808 245.444 86.3501 245.902 86.7418 246.242C87.1336 246.582 87.626 246.783 88.1434 246.816H96.8529C97.3313 246.791 97.79 246.618 98.1653 246.32C98.5405 246.022 98.8135 245.615 98.9462 245.155L102.844 234.251" fill="black"/>
<path d="M77.0195 224.719L83.7586 244.936C83.9414 245.484 84.292 245.96 84.7607 246.298C85.2294 246.635 85.7924 246.816 86.3699 246.816H96.8736C97.411 246.816 97.9368 246.66 98.3858 246.364C98.8348 246.069 99.1872 245.649 99.3995 245.155L104.099 234.251" stroke="#263238" stroke-linecap="round" stroke-linejoin="round"/>
<path d="M127.708 224.719L120.974 244.936C120.791 245.484 120.441 245.96 119.972 246.298C119.503 246.635 118.94 246.816 118.363 246.816H107.87C107.332 246.816 106.806 246.66 106.357 246.364C105.908 246.069 105.556 245.649 105.344 245.155L100.645 234.251" fill="#263238"/>
<path d="M127.708 224.719L120.974 244.936C120.791 245.484 120.441 245.96 119.972 246.298C119.503 246.635 118.94 246.816 118.363 246.816H107.87C107.332 246.816 106.806 246.66 106.357 246.364C105.908 246.069 105.556 245.649 105.344 245.155L100.645 234.251" stroke="#263238" stroke-linecap="round" stroke-linejoin="round"/>
<path d="M150.023 224.719L143.283 244.936C143.101 245.484 142.75 245.96 142.281 246.298C141.813 246.635 141.25 246.816 140.672 246.816H130.168C129.631 246.816 129.105 246.66 128.656 246.364C128.207 246.069 127.855 245.649 127.643 245.155L122.943 234.251" fill="#FFA500"/>
<path opacity="0.3" d="M145.25 224.719L140.641 244.936C140.385 246.057 139.669 246.816 138.858 246.816H131.675C130.928 246.816 130.25 246.164 129.951 245.155L125.486 234.475" fill="black"/>
<path d="M150.023 224.719L143.283 244.936C143.101 245.484 142.75 245.96 142.281 246.298C141.813 246.635 141.25 246.816 140.672 246.816H130.168C129.631 246.816 129.105 246.66 128.656 246.364C128.207 246.069 127.855 245.649 127.643 245.155L122.943 234.251" stroke="#263238" stroke-linecap="round" stroke-linejoin="round"/>
<path d="M114.009 238.021C145.91 238.021 171.772 214.567 171.772 185.635C171.772 156.704 145.91 133.25 114.009 133.25C82.1074 133.25 56.2461 156.704 56.2461 185.635C56.2461 214.567 82.1074 238.021 114.009 238.021Z" fill="#FFA500"/>
<path opacity="0.3" d="M153.792 149.842C157.179 156.559 158.944 163.978 158.945 171.501C158.945 200.433 133.083 223.886 101.182 223.886C89.3108 223.946 77.6747 220.575 67.6738 214.178C77.7451 227.694 94.7957 236.606 114.132 236.606C145.104 236.606 170.202 213.852 170.202 185.78C170.17 171.73 163.901 159.037 153.792 149.842Z" fill="black"/>
<path d="M114.009 238.021C145.91 238.021 171.772 214.567 171.772 185.635C171.772 156.704 145.91 133.25 114.009 133.25C82.1074 133.25 56.2461 156.704 56.2461 185.635C56.2461 214.567 82.1074 238.021 114.009 238.021Z" stroke="#263238" stroke-linecap="round" stroke-linejoin="round"/>
<path d="M166.912 190.334C165.652 200.886 160.787 210.46 153.461 218.022" stroke="#FFA500" stroke-width="2" stroke-linecap="round" stroke-linejoin="round"/>
<path d="M165.957 174.084C166.809 177.618 167.239 181.241 167.239 184.876" stroke="#FFA500" stroke-width="2" stroke-linecap="round" stroke-linejoin="round"/>
<path d="M99.6875 136.518C104.447 135.405 109.319 134.846 114.207 134.852C117.336 134.851 120.461 135.079 123.557 135.535" stroke="#263238" stroke-width="4" stroke-linecap="round" stroke-linejoin="round"/>
<path d="M125.34 173.087C125.34 173.087 130.947 169.279 131.15 162.273C131.353 155.267 122.136 145.057 114.73 140.849C107.323 136.641 101.914 137.448 101.716 140.449C101.519 143.45 98.9127 146.857 97.9141 152.661C96.9156 158.466 96.5097 167.079 104.322 169.883" fill="#FFA500"/>
<path d="M125.34 173.087C125.34 173.087 130.947 169.279 131.15 162.273C131.353 155.267 122.136 145.057 114.73 140.849C107.323 136.641 101.914 137.448 101.716 140.449C101.519 143.45 98.9127 146.857 97.9141 152.661C96.9156 158.466 96.5097 167.079 104.322 169.883" stroke="#263238" stroke-linecap="round" stroke-linejoin="round"/>
<path opacity="0.3" d="M113.277 170.838L114.425 171.008C119.349 171.719 121.079 168.504 120.935 163.677C120.737 156.868 111.728 142.45 107.921 140.448C104.114 138.445 102.917 141.249 102.917 141.249C102.917 141.249 103.451 141.606 101.577 147.828C100.712 150.7 97.4919 160.718 100.68 165.161C103.499 169.086 108.738 170.159 113.277 170.838Z" fill="black"/>
<path opacity="0.3" d="M129.229 163.938H129.154C129.084 163.929 129.017 163.906 128.956 163.871C128.895 163.835 128.841 163.788 128.798 163.732C128.756 163.676 128.725 163.612 128.707 163.544C128.689 163.476 128.685 163.405 128.695 163.335C128.752 162.924 128.786 162.511 128.796 162.096C128.903 158.358 125.854 152.991 120.839 148.041C120.789 147.992 120.749 147.933 120.722 147.868C120.695 147.803 120.68 147.733 120.68 147.663C120.679 147.593 120.693 147.523 120.719 147.458C120.746 147.392 120.785 147.333 120.834 147.283C120.884 147.233 120.942 147.193 121.007 147.165C121.072 147.138 121.142 147.124 121.212 147.123C121.283 147.123 121.352 147.136 121.418 147.162C121.483 147.189 121.542 147.228 121.592 147.277C126.89 152.511 129.981 158.059 129.864 162.123C129.853 162.576 129.817 163.029 129.757 163.479C129.739 163.606 129.676 163.723 129.579 163.807C129.482 163.892 129.357 163.938 129.229 163.938Z" fill="black"/>
<path opacity="0.3" d="M126.356 170.38C126.255 170.38 126.156 170.352 126.07 170.298C125.985 170.244 125.916 170.167 125.873 170.076C125.829 169.985 125.812 169.883 125.824 169.783C125.836 169.683 125.876 169.588 125.94 169.509C126.82 168.431 127.523 167.22 128.022 165.921C128.072 165.788 128.173 165.681 128.302 165.623C128.432 165.565 128.579 165.561 128.711 165.611C128.843 165.661 128.951 165.762 129.009 165.891C129.067 166.02 129.071 166.167 129.021 166.3C128.481 167.706 127.721 169.016 126.767 170.182C126.718 170.243 126.655 170.293 126.584 170.327C126.513 170.361 126.435 170.379 126.356 170.38Z" fill="black"/>
<path opacity="0.3" d="M87.4682 195.772C89.0475 189.442 83.5427 182.618 75.1729 180.53C66.8031 178.441 58.7377 181.88 57.1584 188.209C55.5791 194.539 61.0839 201.363 69.4537 203.451C77.8235 205.54 85.8889 202.101 87.4682 195.772Z" fill="black"/>
<path d="M86.7162 194.622C88.2955 188.292 82.7908 181.468 74.421 179.379C66.0511 177.291 57.9858 180.729 56.4065 187.059C54.8272 193.388 60.3319 200.212 68.7018 202.301C77.0716 204.389 85.1369 200.951 86.7162 194.622Z" fill="#FFA500" stroke="#263238" stroke-linecap="round" stroke-linejoin="round"/>
<path d="M66.8472 188.929C66.9434 190.36 66.3933 191.567 65.6244 191.599C64.8554 191.631 64.1452 190.531 64.0224 189.1C63.8996 187.669 64.4763 186.457 65.2506 186.43C66.0249 186.403 66.7511 187.493 66.8472 188.929Z" stroke="#263238" stroke-linecap="round" stroke-linejoin="round"/>
<path d="M77.4312 191.583C77.5273 193.02 76.9773 194.221 76.2084 194.253C75.4394 194.285 74.7292 193.185 74.6064 191.749C74.4836 190.312 75.0603 189.111 75.8346 189.079C76.6089 189.047 77.3191 190.147 77.4312 191.583Z" stroke="#263238" stroke-linecap="round" stroke-linejoin="round"/>
<path d="M94.8989 195.295C94.7862 196.323 94.5458 197.333 94.1833 198.301C91.1181 206.584 80.0216 210.167 69.0586 206.6" stroke="#263238" stroke-width="3" stroke-linecap="round" stroke-linejoin="round"/>
<path d="M93.1094 194.51H96.511" stroke="#263238" stroke-width="3" stroke-linecap="round" stroke-linejoin="round"/>
<path d="M71.4393 172.339C71.0655 173.893 70.1097 175.009 69.3033 174.806C68.497 174.603 68.1445 173.204 68.5237 171.634C68.9028 170.064 69.8534 168.964 70.6597 169.162C71.466 169.359 71.8185 170.78 71.4393 172.339Z" fill="#263238" stroke="#263238" stroke-linecap="round" stroke-linejoin="round"/>
<path d="M81.2876 174.486C81.6635 172.927 81.3151 171.505 80.5095 171.311C79.7038 171.117 78.746 172.224 78.3701 173.783C77.9942 175.343 78.3426 176.765 79.1482 176.959C79.9539 177.153 80.9117 176.046 81.2876 174.486Z" fill="#263238" stroke="#263238" stroke-linecap="round" stroke-linejoin="round"/>
<path d="M95.9922 231.223L101.866 245.16C102.077 245.659 102.43 246.084 102.881 246.383C103.332 246.682 103.861 246.842 104.403 246.842H115.083C115.619 246.841 116.143 246.684 116.592 246.39C117.041 246.096 117.394 245.678 117.609 245.187L124.017 230.379H123.739" fill="#FFA500"/>
<path opacity="0.3" d="M108.403 229.445C105.018 229.445 101.077 229.888 97.8887 229.151L103.378 245.134C103.509 245.598 103.781 246.01 104.158 246.311C104.534 246.613 104.995 246.789 105.477 246.816H114.277C114.753 246.789 115.209 246.616 115.582 246.32C115.955 246.023 116.227 245.618 116.36 245.16L121.673 228.857L119.537 229.151C112.761 229.888 112.937 229.445 108.403 229.445Z" fill="black"/>
<path d="M95.9922 231.223L101.866 245.16C102.077 245.659 102.43 246.084 102.881 246.383C103.332 246.682 103.861 246.842 104.403 246.842H115.083C115.619 246.841 116.143 246.684 116.592 246.39C117.041 246.096 117.394 245.678 117.609 245.187L124.017 230.379H123.739" stroke="#263238" stroke-linecap="round" stroke-linejoin="round"/>
<path d="M202.386 14.118L172.85 56.6725C172.85 56.6725 170.324 62.696 167.216 67.1656C164.108 71.6352 155.394 76.1047 155.394 76.1047C155.394 76.1047 154.619 84.4565 152.093 87.3721C149.568 90.2878 144.126 88.5416 144.126 88.5416C144.126 88.5416 141.793 91.0674 139.267 92.2315C136.741 93.3957 128.971 89.1237 128.971 89.1237C128.971 89.1237 135.961 96.7011 136.933 99.227C137.905 101.753 139.657 103.889 136.549 106.222C133.441 108.556 129.938 105.25 129.938 105.25C129.938 105.25 131.497 110.302 127.028 111.274C122.558 112.246 117.688 102.527 115.744 99.227C113.8 95.9268 108.167 83.4846 107.2 82.9026C106.234 82.3205 104.872 79.2126 106.816 76.297C108.759 73.3813 122.547 54.7287 124.101 53.3991C125.655 52.0694 155.394 45.0153 155.394 45.0153L166.666 13.9258" fill="white"/>
<path opacity="0.2" d="M169.813 57.1364C169.813 57.1364 166.609 66.7484 163.138 68.6174C159.667 70.4864 139.909 75.5594 132.166 74.4914C124.423 73.4234 120.151 70.4864 120.151 70.4864C120.151 70.4864 115.879 76.0934 114.01 77.9624C112.708 79.1711 111.159 80.0822 109.471 80.6324C109.471 80.6324 118.762 103.974 125.443 111.199C125.962 111.359 126.513 111.385 127.045 111.273C131.514 110.301 129.955 105.25 129.955 105.25C129.955 105.25 133.453 108.55 136.566 106.222C139.679 103.893 137.922 101.752 136.95 99.2263C135.978 96.7005 128.962 89.123 128.962 89.123C128.962 89.123 136.731 93.395 139.257 92.2309C141.783 91.0668 144.117 88.5356 144.117 88.5356C144.117 88.5356 149.558 90.2872 152.084 87.3715C154.61 84.4559 155.384 76.1041 155.384 76.1041C155.384 76.1041 164.126 71.6345 167.239 67.1649C170.352 62.6954 172.873 56.6718 172.873 56.6718L185.042 39.1406L169.813 57.1364Z" fill="black"/>
<path d="M202.386 14.118L172.85 56.6725C172.85 56.6725 170.324 62.696 167.216 67.1656C164.108 71.6352 155.394 76.1047 155.394 76.1047C155.394 76.1047 154.619 84.4565 152.093 87.3721C149.568 90.2878 144.126 88.5416 144.126 88.5416C144.126 88.5416 141.793 91.0674 139.267 92.2315C136.741 93.3957 128.971 89.1237 128.971 89.1237C128.971 89.1237 135.961 96.7011 136.933 99.227C137.905 101.753 139.657 103.889 136.549 106.222C133.441 108.556 129.938 105.25 129.938 105.25C129.938 105.25 131.497 110.302 127.028 111.274C122.558 112.246 117.688 102.527 115.744 99.227C113.8 95.9268 108.167 83.4846 107.2 82.9026C106.234 82.3205 104.872 79.2126 106.816 76.297C108.759 73.3813 122.547 54.7287 124.101 53.3991C125.655 52.0694 155.394 45.0153 155.394 45.0153L166.666 13.9258" stroke="#263238" stroke-linecap="round" stroke-linejoin="round"/>
<path d="M101.369 127.593L102.143 130.508L114.19 127.593L125.463 98.0571L118.078 95.5312L101.369 127.593Z" fill="white" stroke="#263238" stroke-linecap="round" stroke-linejoin="round"/>
<path d="M105.06 88.3438L121.768 94.5648L113.609 131.48L93.9844 125.457L105.06 88.3438Z" fill="white" stroke="#263238" stroke-linecap="round" stroke-linejoin="round"/>
<path d="M94.6406 123.251L112.054 128.372L119.632 95.531L104.375 90.6289L94.6406 123.251Z" fill="#FFA500" stroke="#263238" stroke-linecap="round" stroke-linejoin="round"/>
<path d="M104.306 98.7516C103.548 98.551 102.756 98.5146 101.983 98.6448L97.4336 113.891C98.0921 114.532 98.9022 114.997 99.7885 115.242C103.356 116.224 107.265 113.324 108.514 108.769C109.764 104.214 107.868 99.7288 104.306 98.7516Z" fill="white" stroke="#263238" stroke-linecap="round" stroke-linejoin="round"/>
<path d="M103.66 101.278C103.637 101.268 103.618 101.25 103.606 101.228C103.595 101.205 103.591 101.18 103.596 101.155L103.798 100.365C103.811 100.332 103.816 100.296 103.812 100.261C103.809 100.225 103.797 100.191 103.779 100.161C103.76 100.13 103.735 100.105 103.705 100.085C103.675 100.066 103.642 100.054 103.606 100.05L102.757 99.8469C102.724 99.8334 102.688 99.8279 102.652 99.8308C102.616 99.8337 102.582 99.845 102.551 99.8637C102.521 99.8824 102.495 99.908 102.476 99.9385C102.457 99.9689 102.445 100.003 102.442 100.039L102.277 100.856C102.27 100.881 102.256 100.902 102.235 100.917C102.215 100.931 102.19 100.938 102.164 100.936C101.875 100.907 101.583 100.907 101.294 100.936L99.7401 106.153C100.952 107.414 102.843 108.044 102.592 109.101C102.447 109.699 101.903 110.169 100.947 109.956C100.747 109.929 100.555 109.859 100.385 109.752C100.214 109.644 100.069 109.501 99.9581 109.333C99.8476 109.164 99.7748 108.974 99.7445 108.774C99.7143 108.575 99.7274 108.371 99.7828 108.177L99.8309 107.964C99.8576 107.846 99.7881 107.75 99.6226 107.713L99.2969 107.633L98.373 110.719C98.7441 111.056 99.1777 111.318 99.6493 111.488C99.6733 111.499 99.6928 111.517 99.7045 111.541C99.7162 111.564 99.7193 111.591 99.7134 111.616L99.5211 112.294C99.5064 112.328 99.4999 112.364 99.5023 112.4C99.5046 112.436 99.5157 112.471 99.5346 112.502C99.5535 112.533 99.5797 112.559 99.6108 112.578C99.6419 112.597 99.6771 112.607 99.7134 112.61L100.594 112.823C100.625 112.84 100.66 112.849 100.695 112.85C100.73 112.851 100.765 112.844 100.797 112.83C100.829 112.815 100.857 112.794 100.879 112.767C100.902 112.74 100.917 112.708 100.926 112.674L101.07 112.001C101.078 111.976 101.093 111.954 101.114 111.939C101.136 111.923 101.161 111.915 101.187 111.915C103.067 112.113 104.343 111.189 104.738 109.544C105.048 108.231 104.605 107.115 103.232 106.063C101.978 105.112 100.653 104.642 100.883 103.67C101.043 102.998 101.657 102.688 102.485 102.885C102.69 102.918 102.885 102.995 103.057 103.111C103.23 103.227 103.375 103.378 103.483 103.555C103.591 103.732 103.659 103.931 103.683 104.137C103.707 104.343 103.687 104.552 103.622 104.749L103.585 104.899C103.585 104.989 103.638 105.069 103.804 105.112L105.368 105.486C105.402 105.498 105.437 105.503 105.473 105.5C105.508 105.496 105.542 105.485 105.573 105.466C105.603 105.448 105.629 105.423 105.648 105.393C105.667 105.363 105.679 105.329 105.684 105.294L105.801 104.797C106.159 103.232 105.406 101.903 103.66 101.278Z" fill="#263238"/>
<path d="M118.853 68.9123C118.853 68.9123 121.187 72.4099 121.577 75.5232C121.908 78.1767 121.287 80.8616 119.825 83.1006C118.661 84.8468 117.497 86.4007 116.525 89.1241C115.553 91.8475 115.361 95.7297 113.999 97.6681C112.637 99.6066 111.863 101.55 113.802 103.302C115.74 105.053 120.797 104.856 123.52 99.8041C126.244 94.7525 127.99 89.3111 129.736 87.3673C131.482 85.4235 137.121 80.9593 137.121 80.9593C137.121 80.9593 152.468 78.8233 155.384 76.1052C158.3 73.3872 160.826 66.002 160.826 66.002" fill="white"/>
<path opacity="0.2" d="M159.667 68.6172C159.667 68.6172 151.39 73.9572 144.982 75.5592C138.574 77.1612 134.569 77.1612 132.166 80.3652C129.763 83.5692 127.36 93.7152 124.156 95.5842C120.952 97.4532 120.418 90.7782 115.879 92.1132L115.729 92.1666C115.286 94.2492 114.896 96.3852 113.999 97.6721C112.637 99.6159 111.863 101.554 113.802 103.306C115.74 105.057 120.797 104.86 123.52 99.8081C126.244 94.7565 127.99 89.315 129.736 87.3713C131.482 85.4275 137.121 80.9633 137.121 80.9633C137.121 80.9633 152.468 78.8273 155.384 76.1092C157.146 74.4645 158.764 71.1217 159.768 68.7293L159.667 68.6172Z" fill="black"/>
<path d="M118.853 68.9123C118.853 68.9123 121.187 72.4099 121.577 75.5232C121.908 78.1767 121.287 80.8616 119.825 83.1006C118.661 84.8468 117.497 86.4007 116.525 89.1241C115.553 91.8475 115.361 95.7297 113.999 97.6681C112.637 99.6066 111.863 101.55 113.802 103.302C115.74 105.053 120.797 104.856 123.52 99.8041C126.244 94.7525 127.99 89.3111 129.736 87.3673C131.482 85.4235 137.121 80.9593 137.121 80.9593C137.121 80.9593 152.468 78.8233 155.384 76.1052C158.3 73.3872 160.826 66.002 160.826 66.002" stroke="#263238" stroke-linecap="round" stroke-linejoin="round"/>
<path d="M112.83 78.63C112.83 78.63 117.887 81.3481 121.577 78.2402" stroke="#263238" stroke-linecap="round" stroke-linejoin="round"/>
<path d="M129.929 105.251L125.465 96.7012" stroke="#263238" stroke-linecap="round" stroke-linejoin="round"/>
<path d="M144.115 88.5419C144.115 88.5419 147.613 85.6262 147.415 79.2129" stroke="#263238" stroke-linecap="round" stroke-linejoin="round"/>
<path d="M37.9141 246.814H249.378" stroke="#263238" stroke-linecap="round" stroke-linejoin="round"/>
<path d="M19.2246 246.814H28.8366" stroke="#263238" stroke-linecap="round" stroke-linejoin="round"/>
</svg>
