<svg width="20" height="20" viewBox="0 0 20 20" fill="none" xmlns="http://www.w3.org/2000/svg">
<path fill-rule="evenodd" clip-rule="evenodd" d="M2.34914 3.5H17.6522C18.489 3.5 19.1673 4.24619 19.1673 5.16667V15.1667C19.1673 16.0871 18.489 16.8333 17.6522 16.8333H2.34914C1.51234 16.8333 0.833984 16.0871 0.833984 15.1667V5.16667C0.833984 4.24619 1.51234 3.5 2.34914 3.5ZM2.50065 5.16667V15.1667H17.5006V5.16667H2.50065ZM4.16732 11.8333V13.5H5.83399V11.8333H4.16732ZM6.66732 13.5V11.8333H9.16732V13.5H6.66732ZM14.1673 11.8333V13.5H15.834V11.8333H14.1673ZM11.6673 13.5V11.8333H13.334V13.5H11.6673ZM6.66732 7.66667H4.16732V10.1667H6.66732V7.66667Z" fill="url(#paint0_linear)"/>
<defs>
<linearGradient id="paint0_linear" x1="10.0007" y1="3.5" x2="10.0007" y2="16.8333" gradientUnits="userSpaceOnUse">
<stop stop-color="#252525"/>
<stop offset="1" stop-color="#2C2C2C"/>
</linearGradient>
</defs>
</svg>
