<svg width="10" height="10" viewBox="0 0 10 10" fill="none" xmlns="http://www.w3.org/2000/svg">
<path d="M6.66667 8.61112C5.275 8.61112 4.06667 7.82224 3.46388 6.66667H6.66667V5.55555H3.10279C3.075 5.375 3.05557 5.18888 3.05557 5C3.05557 4.81112 3.07503 4.625 3.10279 4.44445H6.66667V3.33333H3.46388C4.06667 2.17779 5.27221 1.38888 6.66667 1.38888C7.56388 1.38888 8.38333 1.71667 9.01388 2.25833L10 1.27779C9.11667 0.48612 7.94721 0 6.66667 0C4.49167 0 2.64445 1.39167 1.95833 3.33333H0V4.44445H1.7C1.67779 4.62779 1.66667 4.81112 1.66667 5C1.66667 5.18888 1.67779 5.37221 1.7 5.55555H0V6.66667H1.95833C2.64445 8.60833 4.49167 10 6.66667 10C7.94721 10 9.11667 9.51388 10 8.72221L9.01388 7.73888C8.38333 8.28055 7.56388 8.61112 6.66667 8.61112Z" fill="black"/>
</svg>
