<svg width="101" height="33" viewBox="0 0 101 33" fill="none" xmlns="http://www.w3.org/2000/svg">
<path d="M12.918 23.9482H5.21533V9.38525H1.52881V27H12.918V23.9482ZM21.6084 27.2808C25.5635 27.2808 28.0903 24.7539 28.0903 20.4448C28.0903 16.1968 25.5269 13.6333 21.6084 13.6333C17.6899 13.6333 15.1265 16.209 15.1265 20.4448C15.1265 24.7417 17.6533 27.2808 21.6084 27.2808ZM21.6084 24.5586C19.8506 24.5586 18.7397 23.0815 18.7397 20.457C18.7397 17.8569 19.875 16.3555 21.6084 16.3555C23.3418 16.3555 24.4648 17.8569 24.4648 20.457C24.4648 23.0815 23.354 24.5586 21.6084 24.5586ZM43.0186 13.9141H39.4541V21.4092C39.4541 23.1426 38.4653 24.2778 36.8784 24.2778C35.3037 24.2778 34.437 23.3501 34.437 21.6045V13.9141H30.8726V22.3491C30.8726 25.4009 32.7524 27.2441 35.5845 27.2441C37.562 27.2441 38.856 26.292 39.5029 24.644H39.5762V27H43.0186V13.9141Z" fill="#FFA500"/>
<path d="M53.1982 27C56.9214 27 59.1553 25.1689 59.1553 22.166C59.1553 19.7246 57.4585 18.0767 55.0171 17.7837V17.6982C56.897 17.3564 58.2397 15.6841 58.2397 13.731C58.2397 11.1309 56.189 9.38525 53.1616 9.38525H46.8262V27H53.1982ZM48.4863 10.8623H52.8076C55.1514 10.8623 56.5552 11.9976 56.5552 13.9141C56.5552 15.9893 54.9927 17.21 52.3193 17.21H48.4863V10.8623ZM48.4863 25.5229V18.6504H52.7466C55.7861 18.6504 57.4463 19.8833 57.4463 22.0806C57.4463 24.2656 55.8472 25.5229 52.9663 25.5229H48.4863ZM66.3809 25.8159C64.6597 25.8159 63.4756 24.8638 63.4756 23.4844C63.4756 22.0806 64.5864 21.2139 66.5884 21.0796L70.3481 20.8232V22.2271C70.3481 24.2412 68.6025 25.8159 66.3809 25.8159ZM66.0513 27.2075C67.9434 27.2075 69.6768 26.1577 70.3848 24.583H70.4214V27H71.9595V18.3086C71.9595 15.7207 70.1406 14.0972 67.2476 14.0972C64.3545 14.0972 62.4868 15.7085 62.3037 17.979H63.8662C64.147 16.4409 65.3433 15.5254 67.2109 15.5254C69.1885 15.5254 70.3481 16.624 70.3481 18.4551V19.5537L66.3931 19.7979C63.4634 19.9932 61.8398 21.3115 61.8398 23.4844C61.8398 25.7061 63.5488 27.2075 66.0513 27.2075ZM75.6694 27H77.2808V19.4805C77.2808 17.1245 78.7578 15.5376 80.9551 15.5376C83.0791 15.5376 84.2998 16.8071 84.2998 19.0288V27H85.9111V18.7725C85.9111 15.8916 84.2021 14.0972 81.4189 14.0972C79.3682 14.0972 77.8789 15.1104 77.2319 16.6484H77.1953V14.3047H75.6694V27ZM91.3667 20.3105V9.38525H89.7432V27H91.3667V22.0806L92.7827 20.7744L97.8608 27H99.7529L93.9424 19.7856L99.6431 14.3047H97.6411L91.3667 20.3105Z" fill="#212121"/>
<path d="M62 5C68.4626 1.98151 85.1102 -2.24439 100 5" stroke="#FFA500"/>
</svg>
