<svg width="12" height="9" viewBox="0 0 12 9" fill="none" xmlns="http://www.w3.org/2000/svg">
<path d="M8.45522 0H3.52577C3.30422 0 3.08267 0.110774 3.02729 0.332323L0.0363812 7.25571C-0.0190059 7.42188 -0.0190057 7.64342 0.0917685 7.7542C0.202543 7.92036 0.368704 8.03113 0.534866 8.03113H11.4461C11.7785 8.03113 12 7.80959 12 7.47726C12 7.36649 11.9446 7.25571 11.8892 7.14494L8.89832 0.276936C8.89832 0.110774 8.67677 0 8.45522 0ZM1.42106 6.92339L3.96887 1.10774H8.1229L10.6153 6.92339H1.42106Z" fill="black"/>
<path d="M6.85046 2.49219H5.18885C4.9673 2.49219 4.74575 2.60296 4.69036 2.82451L3.80417 4.76306C3.69339 5.04 3.80417 5.37232 4.0811 5.48309C4.13649 5.53848 4.24726 5.53848 4.30265 5.53848C4.5242 5.53848 4.74575 5.4277 4.80114 5.20616L5.52117 3.54454H6.79507C7.12739 3.54454 7.34894 3.32299 7.34894 2.99067C7.40433 2.71374 7.1274 2.49219 6.85046 2.49219Z" fill="black"/>
</svg>
