<svg width="24" height="24" viewBox="0 0 24 24" fill="none" xmlns="http://www.w3.org/2000/svg">
<path fill-rule="evenodd" clip-rule="evenodd" d="M8.12848 18.8859L11.9439 16.8987L15.7593 18.8859C16.4934 19.2683 17.3478 18.6441 17.2065 17.8284L16.4803 13.6335L19.5481 10.6709C20.1463 10.0932 19.8191 9.08026 18.9959 8.96176L14.7475 8.35018L12.839 4.51894C12.4709 3.78014 11.4168 3.78014 11.0488 4.51895L9.14021 8.35018L4.89181 8.96176C4.06869 9.08026 3.74143 10.0932 4.33964 10.6709L7.40745 13.6335L6.6812 17.8284C6.53999 18.6441 7.39431 19.2683 8.12848 18.8859ZM15.4855 16.9996L11.9452 15.1556L8.40479 16.9996L9.08094 13.094L6.21673 10.3281L10.175 9.75825L11.9452 6.20484L13.7153 9.75825L17.6736 10.3281L14.8094 13.094L15.4855 16.9996Z" fill="url(#paint0_linear)"/>
<defs>
<linearGradient id="paint0_linear" x1="11.9439" y1="3.96484" x2="11.9439" y2="19.0012" gradientUnits="userSpaceOnUse">
<stop stop-color="#252525"/>
<stop offset="1" stop-color="#2C2C2C"/>
</linearGradient>
</defs>
</svg>
