<svg width="6" height="12" viewBox="0 0 6 12" fill="none" xmlns="http://www.w3.org/2000/svg">
<path d="M5.9157 7.30566C5.86004 7.10941 5.79252 6.93861 5.71321 6.79357C5.63395 6.64838 5.52044 6.50676 5.37244 6.36823C5.22462 6.22978 5.09164 6.11827 4.97373 6.03351C4.85589 5.94867 4.69402 5.85382 4.4882 5.74883C4.28257 5.64387 4.11964 5.56576 3.9997 5.5144C3.87961 5.4631 3.70589 5.39278 3.47865 5.30349C3.27718 5.22318 3.12718 5.16178 3.02848 5.11939C2.9299 5.07696 2.80026 5.01673 2.63949 4.93855C2.47878 4.8605 2.35873 4.79126 2.27941 4.73102C2.2001 4.67079 2.11546 4.59714 2.02542 4.5101C1.93537 4.42306 1.87215 4.33041 1.83568 4.2322C1.79931 4.13398 1.78106 4.02681 1.78106 3.91073C1.78106 3.60722 1.90962 3.35937 2.16684 3.16746C2.42407 2.97555 2.75636 2.87955 3.16364 2.87955C3.3436 2.87955 3.52708 2.90519 3.71343 2.95658C3.89979 3.00797 4.0595 3.06586 4.19241 3.13064C4.32543 3.19542 4.45077 3.26687 4.5687 3.34495C4.68661 3.4231 4.77017 3.48221 4.81952 3.52238C4.86882 3.56259 4.90006 3.58935 4.91279 3.60277C4.9686 3.6474 5.02633 3.663 5.08635 3.64965C5.15063 3.6452 5.19998 3.60943 5.23435 3.54253L5.75531 2.56483C5.80673 2.47559 5.7961 2.39075 5.72317 2.31035C5.6974 2.28356 5.66537 2.25234 5.62652 2.2166C5.58805 2.18085 5.50442 2.11614 5.3757 2.02234C5.24712 1.92861 5.11101 1.8449 4.9675 1.77123C4.82382 1.69763 4.63728 1.62281 4.40791 1.54695C4.17867 1.47098 3.94175 1.41969 3.69733 1.39292V0.214285C3.69733 0.151825 3.67807 0.100458 3.6396 0.060256C3.60104 0.0201479 3.55172 0 3.4916 0H2.62343C2.5677 0 2.51948 0.0211799 2.47876 0.0636101C2.43804 0.10604 2.41768 0.156234 2.41768 0.214285V1.41966C1.7446 1.55354 1.19801 1.85267 0.777883 2.31696C0.357805 2.78128 0.147687 3.32138 0.147687 3.93752C0.147687 4.12054 0.165976 4.29464 0.202418 4.45974C0.238816 4.62498 0.283862 4.77343 0.337467 4.90511C0.391026 5.03688 0.467155 5.1663 0.565738 5.29357C0.664322 5.42079 0.75759 5.53018 0.845453 5.62166C0.93336 5.71311 1.04805 5.80801 1.18947 5.90619C1.33098 6.00447 1.45209 6.08377 1.55286 6.144C1.65365 6.20405 1.78759 6.27347 1.95474 6.35142C2.12193 6.42959 2.2538 6.48867 2.35027 6.52895C2.44673 6.56908 2.57854 6.62495 2.74579 6.69623C2.97726 6.78998 3.14878 6.86255 3.26022 6.91391C3.37176 6.96528 3.51318 7.0367 3.68476 7.12822C3.85618 7.21965 3.98152 7.30339 4.0609 7.37931C4.1402 7.45523 4.21198 7.54898 4.27633 7.66056C4.34068 7.77213 4.37291 7.89044 4.37291 8.0155C4.37291 8.3682 4.24108 8.64046 3.97736 8.83228C3.71375 9.02431 3.4082 9.12028 3.06101 9.12028C2.90253 9.12028 2.74379 9.10253 2.58523 9.06683C2.02792 8.95061 1.50707 8.67159 1.02264 8.22965L1.00978 8.21626C0.971177 8.16728 0.919711 8.14716 0.855476 8.15614C0.78687 8.16505 0.737545 8.19186 0.707566 8.23659L0.0452068 9.14055C-0.0191192 9.22982 -0.0147721 9.32132 0.0580901 9.41507C0.0795547 9.44188 0.117056 9.48215 0.170616 9.53563C0.224311 9.58931 0.323998 9.67288 0.469677 9.78695C0.615402 9.90084 0.774032 10.0078 0.945545 10.1084C1.11704 10.2088 1.33456 10.3081 1.59826 10.4064C1.86197 10.5045 2.13519 10.5736 2.41815 10.6138V11.7857C2.41815 11.8438 2.43853 11.894 2.47923 11.9364C2.51998 11.9789 2.56818 12 2.6239 12H3.49207C3.55219 12 3.60151 11.9799 3.64005 11.9398C3.67859 11.8997 3.69778 11.8483 3.69778 11.7857V10.6138C4.37953 10.4978 4.93362 10.193 5.36012 9.69972C5.78666 9.20639 6 8.61821 6 7.93522C5.99977 7.71204 5.97196 7.50221 5.9157 7.30566Z" fill="black"/>
</svg>
