<svg width="20" height="20" viewBox="0 0 20 20" fill="none" xmlns="http://www.w3.org/2000/svg">
<path d="M13.0551 8.33333H16.3885V7.22222C16.3885 6 15.3885 5 14.1662 5H7.49957C6.27734 5 5.27734 6 5.27734 7.22222V12.7778C5.27734 14 6.27734 15 7.49957 15H14.1662C15.3885 15 16.3885 14 16.3885 12.7778V11.6667H13.0551C12.444 11.6667 11.944 11.1667 11.944 10.5556V9.44445C11.944 8.83333 12.444 8.33333 13.0551 8.33333Z" stroke="#212121" stroke-width="1.66667" stroke-miterlimit="10" stroke-linecap="round" stroke-linejoin="round"/>
<path d="M13.6122 10.5545C13.919 10.5545 14.1678 10.3057 14.1678 9.99891C14.1678 9.69209 13.919 9.44336 13.6122 9.44336C13.3054 9.44336 13.0566 9.69209 13.0566 9.99891C13.0566 10.3057 13.3054 10.5545 13.6122 10.5545Z" fill="#212121"/>
<path d="M16.3906 8.33398V11.6673" stroke="#212121" stroke-width="1.66667" stroke-miterlimit="10" stroke-linecap="round" stroke-linejoin="round"/>
</svg>
